<svg width="512" height="512" viewBox="0 0 512 512" fill="none" xmlns="http://www.w3.org/2000/svg">
<rect width="512" height="512" fill="#FFF8E4"/>
<path d="M174.02 306.855H170.016L84.3711 200.312H83.0039V286.738C83.0039 289.342 83.362 291.784 84.0781 294.062C84.7943 296.276 86.7474 298.099 89.9375 299.531C93.1276 300.898 98.4336 301.712 105.855 301.973V305C103.512 304.87 100.159 304.772 95.7969 304.707C91.4349 304.577 86.8451 304.512 82.0273 304.512C72.5872 304.512 65.3281 304.674 60.25 305V301.973C66.5651 301.777 71.0898 300.996 73.8242 299.629C76.5586 298.197 78.2513 296.374 78.9023 294.16C79.5534 291.882 79.8789 289.408 79.8789 286.738V207.637C79.8789 204.642 79.5208 202.168 78.8047 200.215C78.1536 198.262 76.4284 196.764 73.6289 195.723C70.8945 194.681 66.4349 194.03 60.25 193.77V190.84C62.724 191.1 65.9141 191.263 69.8203 191.328C73.7917 191.328 78.0234 191.328 82.5156 191.328C85.3802 191.328 88.0169 191.296 90.4258 191.23C92.8997 191.1 95.0482 190.97 96.8711 190.84L169.43 285.957H170.895V208.906C170.895 206.302 170.406 203.926 169.43 201.777C168.453 199.564 166.337 197.741 163.082 196.309C159.827 194.876 154.781 194.03 147.945 193.77V190.84C150.354 190.97 153.772 191.1 158.199 191.23C162.626 191.296 167.184 191.328 171.871 191.328C181.376 191.328 188.635 191.165 193.648 190.84V193.77C187.919 193.9 183.655 194.681 180.855 196.113C178.056 197.546 176.201 199.401 175.289 201.68C174.443 203.893 174.02 206.302 174.02 208.906V306.855ZM212.934 305V301.973C218.272 301.777 222.243 301.322 224.848 300.605C227.452 299.824 229.177 298.457 230.023 296.504C230.87 294.551 231.293 291.751 231.293 288.105V207.637C231.293 203.861 230.87 201.029 230.023 199.141C229.177 197.253 227.452 195.951 224.848 195.234C222.243 194.453 218.272 193.965 212.934 193.77V190.84C218.988 190.97 226.801 191.1 236.371 191.23C246.007 191.296 257.204 191.328 269.965 191.328C274.913 191.328 280.87 191.328 287.836 191.328C294.802 191.263 301.215 191.1 307.074 190.84C306.749 198.001 307.628 207.832 309.711 220.332H306.586C304.177 213.757 301.736 208.581 299.262 204.805C296.788 200.964 293.826 198.262 290.375 196.699C286.99 195.072 282.595 194.258 277.191 194.258H246.332V246.016H262.25C269.802 246.016 275.238 244.258 278.559 240.742C281.879 237.227 284.092 231.465 285.199 223.457H287.836C287.445 229.902 287.25 234.785 287.25 238.105C287.315 241.426 287.348 244.583 287.348 247.578C287.348 248.88 287.38 250.378 287.445 252.07C287.51 253.698 287.608 256.042 287.738 259.102C287.934 262.096 288.161 266.296 288.422 271.699H285.688C285.036 265.775 283.897 261.185 282.27 257.93C280.707 254.674 278.331 252.396 275.141 251.094C272.016 249.727 267.719 249.043 262.25 249.043H246.332V288.105C246.332 292.012 246.723 294.909 247.504 296.797C248.285 298.685 249.848 299.954 252.191 300.605C254.6 301.191 258.181 301.484 262.934 301.484H269.965C278.884 301.484 286.046 300.508 291.449 298.555C296.918 296.602 301.378 293.151 304.828 288.203C308.279 283.19 311.469 276.159 314.398 267.109H317.426C316.319 275.378 315.538 282.604 315.082 288.789C314.691 294.909 314.561 300.312 314.691 305C308.702 304.87 302.061 304.772 294.77 304.707C287.543 304.577 279.275 304.512 269.965 304.512C257.204 304.512 246.039 304.577 236.469 304.707C226.898 304.772 219.053 304.87 212.934 305ZM339.738 305V301.973C345.142 301.712 349.178 301.224 351.848 300.508C354.517 299.727 356.275 298.392 357.121 296.504C358.033 294.551 358.488 291.751 358.488 288.105V207.637C358.488 203.926 358.033 201.126 357.121 199.238C356.275 197.35 354.517 196.048 351.848 195.332C349.178 194.551 345.142 194.03 339.738 193.77V190.84C342.212 190.905 345.533 190.97 349.699 191.035C353.866 191.035 358.879 191.035 364.738 191.035C370.923 191.035 376.848 191.003 382.512 190.938C388.176 190.872 392.147 190.84 394.426 190.84C408.684 190.84 419.849 193.249 427.922 198.066C435.995 202.884 440.031 209.72 440.031 218.574C440.031 226.582 436.841 233.255 430.461 238.594C424.146 243.867 415.585 247.285 404.777 248.848C410.832 249.434 415.715 250.573 419.426 252.266C423.202 253.893 426.197 256.335 428.41 259.59C430.624 262.845 432.414 267.207 433.781 272.676L439.445 294.648C440.161 297.318 441.431 299.076 443.254 299.922C445.142 300.703 447.486 301.159 450.285 301.289C452.368 301.354 454.289 300.833 456.047 299.727C457.805 298.62 459.497 297.188 461.125 295.43L462.98 298.066C459.986 301.387 457.023 303.73 454.094 305.098C451.164 306.53 447.616 307.246 443.449 307.246C438.306 307.246 433.911 305.781 430.266 302.852C426.62 299.922 424.048 295.592 422.551 289.863L417.766 271.992C415.747 264.375 412.883 258.874 409.172 255.488C405.461 252.103 399.862 250.41 392.375 250.41H373.625V288.105C373.625 291.882 374.048 294.746 374.895 296.699C375.806 298.587 377.596 299.889 380.266 300.605C382.935 301.257 386.971 301.712 392.375 301.973V305C389.901 304.87 386.418 304.772 381.926 304.707C377.434 304.577 372.095 304.512 365.91 304.512C359.79 304.512 354.484 304.577 349.992 304.707C345.565 304.772 342.147 304.87 339.738 305ZM389.738 193.867H373.625V247.48H390.227C412.688 247.48 423.918 238.366 423.918 220.137C423.918 210.827 421.118 204.121 415.52 200.02C409.986 195.918 401.392 193.867 389.738 193.867Z" fill="#4E342E"/>
</svg>
